# Blender 4.1.0
# www.blender.org
mtllib 01.mtl
o 1
v -1.130660 -2.526467 -1.379723
v -1.130660 -0.163045 -1.379723
v -1.130660 -0.163044 -1.186174
v -1.130660 -2.526466 -1.186173
v -1.376459 -2.526467 -1.431973
v -1.376459 -0.163045 -1.431973
v -1.182906 -0.163045 -1.431973
v -1.182906 -2.526467 -1.431973
v -1.428707 -2.526466 -1.186173
v -1.428707 -0.163044 -1.186174
v -1.428707 -0.163045 -1.379723
v -1.428707 -2.526467 -1.379723
v -1.182906 -2.526466 -1.133925
v -1.182906 -0.163044 -1.133925
v -1.376458 -0.163044 -1.133925
v -1.376458 -2.526466 -1.133925
v -1.145960 -0.163045 -1.416670
v -1.145960 -2.526467 -1.416670
v -1.145960 -2.526466 -1.149229
v -1.145960 -0.163044 -1.149229
v -1.413403 -2.526466 -1.149229
v -1.413403 -0.163044 -1.149229
v -1.413404 -2.526467 -1.416670
v -1.413404 -0.163045 -1.416670
v -1.468848 -0.314167 -1.539383
v -1.468848 -0.382004 -1.539383
v -1.539384 -0.382004 -1.468850
v -1.539384 -0.314167 -1.468850
v -1.364737 0.000000 -1.364734
v -1.506234 0.000000 -1.364735
v -1.372501 -0.155879 -1.565201
v -1.372501 -0.058969 -1.565201
v -1.372501 -0.314167 -1.565201
v -1.372501 -0.382004 -1.565201
v -1.565202 -0.382004 -1.372498
v -1.565202 -0.314167 -1.372498
v -1.565202 -0.058968 -1.372498
v -1.565202 -0.155879 -1.372498
v -1.438326 -0.000000 -1.486515
v -1.364737 -0.000000 -1.506232
v -1.368618 -0.007900 -1.535717
v -1.453587 -0.007900 -1.512949
v -1.371461 -0.029484 -1.557299
v -1.464761 -0.029484 -1.532299
v -1.468848 -0.058969 -1.539383
v -1.486515 -0.000000 -1.438327
v -1.512949 -0.007900 -1.453589
v -1.532299 -0.029484 -1.464760
v -1.539384 -0.058969 -1.468850
v -1.535716 -0.007899 -1.368618
v -1.557300 -0.029483 -1.371458
v -1.539384 -0.155879 -1.468850
v -1.468848 -0.155879 -1.539383
v -1.344962 -0.155879 -1.521523
v -1.536525 -0.314167 -1.332407
v -1.344962 -0.314167 -1.521523
v -1.440743 -0.155879 -1.496186
v -1.510862 -0.314167 -1.426965
v -1.440743 -0.314167 -1.496186
v -1.536525 -0.155878 -1.332407
v -1.510862 -0.155879 -1.426965
v -0.000000 -0.000000 -1.506232
v -0.000000 0.000000 -1.364734
v -0.000000 -0.314167 -1.565201
v -0.000000 -0.058969 -1.565201
v -0.000000 -0.155879 -1.565201
v -0.000000 -0.382004 -1.565201
v -0.000000 -0.314167 -1.521523
v -0.000000 -0.029484 -1.557299
v -0.000000 -0.007900 -1.535717
v -0.000000 -0.155879 -1.521523
v -1.565201 -0.382004 0.000000
v -1.565201 -0.155879 0.000000
v -1.536525 -0.155878 0.000000
v -1.535715 -0.007899 0.000000
v -1.565201 -0.058968 0.000000
v -1.565201 -0.314167 0.000000
v -1.557300 -0.029483 0.000000
v -1.506233 0.000000 0.000000
v -1.364736 0.000000 0.000000
v -1.536525 -0.314167 0.000000
v -0.000000 0.000000 -0.000000
vn 0.9808 -0.0000 -0.1951
vn 0.9808 -0.0000 0.1951
vn -0.1951 -0.0000 -0.9808
vn 0.1951 -0.0000 -0.9808
vn -0.9808 -0.0000 0.1951
vn -0.9808 -0.0000 -0.1951
vn 0.1951 -0.0000 0.9808
vn -0.1951 -0.0000 0.9808
vn 0.7071 -0.0000 -0.7071
vn 0.7071 -0.0000 0.7071
vn -0.7071 -0.0000 0.7071
vn -0.7071 -0.0000 -0.7071
vn -0.5000 -0.0000 -0.8660
vn -0.8660 -0.0000 -0.5000
vn -0.1305 0.9914 -0.0000
vn -0.0000 1.0000 -0.0000
vn -0.1388 0.9901 -0.0183
vn -0.1302 -0.0000 -0.9915
vn -0.9914 -0.0000 -0.1305
vn -1.0000 -0.0000 -0.0000
vn -0.9915 0.1302 -0.0000
vn -0.9830 0.1302 -0.1294
vn -0.0731 0.9892 -0.1271
vn -0.0181 0.9902 -0.1385
vn -0.0670 0.8584 -0.5086
vn -0.2598 0.8544 -0.4500
vn -0.1135 0.4936 -0.8622
vn -0.4350 0.4931 -0.7534
vn -0.1294 0.1302 -0.9830
vn -0.4956 0.1320 -0.8584
vn -0.1272 0.9892 -0.0734
vn -0.4500 0.8544 -0.2598
vn -0.7534 0.4931 -0.4350
vn -0.8584 0.1320 -0.4956
vn -0.5086 0.8584 -0.0670
vn -0.8622 0.4936 -0.1135
vn -0.0000 -1.0000 -0.0000
vn -0.9912 -0.0000 -0.1321
vn -0.8636 -0.0000 -0.5042
vn -0.1289 -0.0000 -0.9917
vn -0.4958 -0.0000 -0.8684
vn -0.0000 -0.0000 -1.0000
vn -0.0000 0.9914 -0.1305
vn -0.0000 0.5000 -0.8660
vn -0.0000 0.1305 -0.9914
vn -0.0000 0.8660 -0.5000
vn -0.5000 0.8660 -0.0000
vn -0.8660 0.5000 -0.0000
vt 0.117559 -0.000005
vt 0.117557 0.999996
vt 0.035793 0.999996
vt 0.035796 -0.000005
vt 0.233106 -0.000005
vt 0.233106 0.999996
vt 0.151341 0.999996
vt 0.151343 -0.000005
vt 0.348656 -0.000003
vt 0.348654 0.999998
vt 0.266891 0.999998
vt 0.266891 -0.000003
vt 0.464206 0.000004
vt 0.464203 1.000005
vt 0.382438 1.000003
vt 0.382440 0.000002
vt 0.134448 0.999996
vt 0.134452 -0.000005
vt 0.481099 0.000006
vt 0.481097 1.000005
vt 0.018900 0.999996
vt 0.018902 -0.000005
vt 0.365547 -0.000001
vt 0.365545 1.000000
vt 0.249999 -0.000003
vt 0.249997 0.999998
vt 0.894285 0.872297
vt 0.918143 0.895748
vt 0.880363 0.928787
vt 0.859863 0.902099
vt -0.000000 0.758674
vt -0.000000 0.688528
vt 0.679528 0.686285
vt 0.679682 0.757927
vt 0.925328 0.836433
vt 0.951269 0.858373
vt 0.839703 0.957465
vt 0.820825 0.929370
vt -0.000000 0.851942
vt -0.000000 0.803919
vt 0.683933 0.803307
vt 0.684049 0.851402
vt 0.739615 0.721691
vt 0.751075 0.685792
vt 0.769730 0.689323
vt 0.751899 0.728858
vt 0.788033 0.696361
vt 0.762975 0.736365
vt 0.804353 0.707605
vt 0.772693 0.744601
vt 0.715503 0.746088
vt 0.722876 0.758321
vt 0.730609 0.769343
vt 0.739074 0.779008
vt 0.683572 0.776638
vt 0.690951 0.794917
vt 0.702519 0.811097
vt -0.000000 0.000000
vt 0.677145 0.000000
vt 0.772926 0.810713
vt 0.740720 0.845989
vt 0.839772 0.745452
vt 0.804770 0.777642
vt -0.000000 1.000000
vt -0.000000 0.958753
vt 0.684238 0.958496
vt 0.684256 1.000000
vt 0.962188 0.000000
vt 0.966314 0.688957
vt 0.944548 0.675399
vt 0.940572 0.000000
vt 0.859458 0.761603
vt 0.821347 0.795954
vt 0.837726 0.890396
vt 0.876157 0.854007
vt -0.000000 0.944593
vt -0.000000 0.866103
vt 0.664223 0.865657
vt 0.664313 0.944233
vt 0.782711 0.832568
vt 0.799347 0.923191
vt 0.746800 0.868340
vt 0.911356 0.816953
vt 0.866012 0.675820
vt 0.862090 0.000000
vt 1.000000 0.688761
vt 0.999999 0.000000
vt 0.844444 0.689556
vt 0.840479 0.000000
vt 0.747266 0.000000
vt 0.781285 0.689241
vt 0.777395 0.000000
vt 0.792462 0.000000
vt 0.796395 0.689763
vt 0.766181 0.687812
vt 0.762331 0.000000
vt 0.681778 0.773044
vt -0.000000 0.773759
vt 0.683310 0.788166
vt -0.000000 0.788847
s 1
usemtl Material.002
f 1/1/1 2/2/1 3/3/2 4/4/2
f 5/5/3 6/6/3 7/7/4 8/8/4
f 9/9/5 10/10/5 11/11/6 12/12/6
f 13/13/7 14/14/7 15/15/8 16/16/8
f 8/8/4 7/7/4 17/17/9 18/18/9
f 18/18/9 17/17/9 2/2/1 1/1/1
f 14/14/7 13/13/7 19/19/10 20/20/10
f 20/21/10 19/22/10 4/4/2 3/3/2
f 10/10/5 9/9/5 21/23/11 22/24/11
f 22/24/11 21/23/11 16/16/8 15/15/8
f 6/6/3 5/5/3 23/25/12 24/26/12
f 24/26/12 23/25/12 12/12/6 11/11/6
f 25/27/13 26/28/13 27/29/14 28/30/14
f 79/31/15 80/32/16 29/33/16 30/34/17
f 33/35/18 34/36/18 26/28/13 25/27/13
f 28/30/14 27/29/14 35/37/19 36/38/19
f 73/39/20 76/40/21 37/41/22 38/42/19
f 39/43/23 40/44/24 41/45/25 42/46/26
f 42/46/26 41/45/25 43/47/27 44/48/28
f 44/48/28 43/47/27 32/49/29 45/50/30
f 46/51/31 39/43/23 42/46/26 47/52/32
f 47/52/32 42/46/26 44/48/28 48/53/33
f 48/53/33 44/48/28 45/50/30 49/54/34
f 30/34/17 46/51/31 47/52/32 50/55/35
f 50/55/35 47/52/32 48/53/33 51/56/36
f 51/56/36 48/53/33 49/54/34 37/57/22
f 30/34/17 29/33/16 46/51/31
f 82/58/16 63/59/16 29/33/16 80/32/16
f 46/51/31 29/33/16 39/43/23
f 39/43/23 29/33/16 40/44/24
f 49/54/34 52/60/14 38/61/19 37/57/22
f 32/49/29 31/62/18 53/63/13 45/50/30
f 45/50/30 53/63/13 52/60/14 49/54/34
f 72/64/20 77/65/20 36/66/19 35/67/19
f 64/68/16 33/69/16 56/70/16 68/71/16
f 53/63/37 31/62/37 54/72/37 57/73/37
f 25/27/16 28/30/16 58/74/16 59/75/16
f 81/76/20 74/77/20 60/78/38 55/79/38
f 61/80/39 58/74/39 55/81/38 60/82/38
f 54/72/40 56/83/40 59/75/41 57/73/41
f 57/73/41 59/75/41 58/74/39 61/80/39
f 28/30/16 36/38/16 55/81/16 58/74/16
f 52/60/37 53/63/37 57/73/37 61/80/37
f 73/39/37 38/42/37 60/78/37 74/77/37
f 38/61/37 52/60/37 61/80/37 60/82/37
f 33/35/16 25/27/16 59/75/16 56/83/16
f 56/70/40 54/84/40 71/85/42 68/71/42
f 34/86/18 33/69/18 64/68/42 67/87/42
f 31/88/37 66/89/37 71/85/37 54/84/37
f 40/44/24 29/33/16 63/59/16 62/90/43
f 43/91/27 69/92/44 65/93/45 32/94/29
f 41/95/25 70/96/46 69/92/44 43/91/27
f 40/44/24 62/90/43 70/96/46 41/95/25
f 31/88/18 32/94/29 65/93/45 66/89/42
f 36/66/16 77/65/16 81/76/16 55/79/16
f 50/97/35 75/98/47 79/31/15 30/34/17
f 51/99/36 78/100/48 75/98/47 50/97/35
f 37/41/22 76/40/21 78/100/48 51/99/36
